<svg xmlns="http://www.w3.org/2000/svg" viewBox="0 0 664.18 765.08"><defs><style>.a{fill:#231f20;}.a,.b,.c{stroke:#231f20;}.a,.b,.d{stroke-miterlimit:10;}.b,.d{fill:#fff;}.c{fill:none;stroke-linejoin:round;stroke-width:12px;}.c,.d{stroke-linecap:round;}.d{stroke:#fff;}</style></defs><polygon class="a" points="332.09 6 658.18 194.27 658.18 570.81 332.09 759.08 6 570.81 6 194.27 332.09 6"/><path class="b" d="M396.47,18.81c-8.51-.74-15.46,4.73-21.55,10C370,33.08,365.16,37.58,359.61,41l.07,713.73,40.25,12.33a24.69,24.69,0,0,0,31.92-23.61l-.07-708.44C419,32.12,409.75,20,396.47,18.81Z" transform="translate(-63.6 -13.46)"/><polygon class="c" points="332.09 6 658.18 194.27 658.18 570.81 332.09 759.08 6 570.81 6 194.27 332.09 6"/><polygon class="d" points="651.12 197.73 386.26 383.97 386.26 43.93 651.12 197.73"/><polygon class="d" points="13.4 197.73 278.26 383.97 278.26 43.93 13.4 197.73"/><polygon class="d" points="651.12 568.31 386.26 719.28 386.26 386.97 651.12 568.31"/></svg>